<svg xmlns="http://www.w3.org/2000/svg" version="1.1" xmlns:xlink="http://www.w3.org/1999/xlink" xmlns:svgjs="http://svgjs.dev/svgjs" width="1500" height="340" viewBox="0 0 1500 340"><g transform="matrix(1,0,0,1,-0.9090909090909918,-0.25700950669696)"><svg viewBox="0 0 396 90" data-background-color="#ffffff" preserveAspectRatio="xMidYMid meet" height="340" width="1500" xmlns="http://www.w3.org/2000/svg" xmlns:xlink="http://www.w3.org/1999/xlink"><g id="tight-bounds" transform="matrix(1,0,0,1,0.2400000000000091,0.40697574488476107)"><svg viewBox="0 0 395.52 89.18604851023046" height="89.18604851023046" width="395.52"><g><svg viewBox="0 0 525.3114599522778 118.45280478935031" height="89.18604851023046" width="395.52"><g transform="matrix(1,0,0,1,129.79145995227785,13.145140708576506)"><svg viewBox="0 0 395.52 92.1625233721973" height="92.1625233721973" width="395.52"><g id="textblocktransform"><svg viewBox="0 0 395.52 92.1625233721973" height="92.1625233721973" width="395.52" id="textblock"><g><svg viewBox="0 0 395.52 61.050326594090194" height="61.050326594090194" width="395.52"><g transform="matrix(1,0,0,1,0,0)"><svg width="395.52" viewBox="2.5 -38.6 257.18 39.7" height="61.050326594090194" data-palette-color="#ff4136"><g class="wordmark-text-0" data-fill-palette-color="primary" id="text-0"><path d="M26.9-38.55L27.85-38.55 27.85-30.55 26.9-30.55Q26.9-30.9 26.75-31.25 26.6-31.6 26.35-31.6L26.35-31.6 10.15-31.6 10.15-22.75 23.25-22.75Q23.5-22.75 23.65-23.1 23.8-23.45 23.8-23.8L23.8-23.8 24.75-23.8 24.75-15.8 23.8-15.8Q23.8-16.15 23.65-16.5 23.5-16.85 23.25-16.85L23.25-16.85 10.15-16.85 10.15-1.5Q10.15-1.25 10.53-1.1 10.9-0.95 11.3-0.95L11.3-0.95 11.3 0 2.5 0 2.5-0.95Q2.9-0.95 3.28-1.1 3.65-1.25 3.65-1.5L3.65-1.5 3.65-36Q3.65-36.25 3.28-36.4 2.9-36.55 2.55-36.55L2.55-36.55 2.55-37.5 26.35-37.5Q26.6-37.5 26.75-37.85 26.9-38.2 26.9-38.55L26.9-38.55ZM43.1 0.6Q39.4 0.6 36.57-0.98 33.75-2.55 32.17-5.3 30.6-8.05 30.6-11.5L30.6-11.5Q30.6-14.9 32.17-17.7 33.75-20.5 36.6-22.13 39.45-23.75 43.1-23.75L43.1-23.75Q46.6-23.75 49.45-22.18 52.3-20.6 53.95-17.82 55.6-15.05 55.6-11.5L55.6-11.5Q55.6-8.4 54.12-5.63 52.65-2.85 49.8-1.13 46.95 0.6 43.1 0.6L43.1 0.6ZM43.1-5.15Q46.05-5.15 47.87-6.88 49.7-8.6 49.7-11.35L49.7-11.35Q49.7-14.2 47.87-16.05 46.05-17.9 43.1-17.9L43.1-17.9Q40.35-17.9 38.5-16.07 36.65-14.25 36.65-11.5L36.65-11.5Q36.65-8.6 38.5-6.88 40.35-5.15 43.1-5.15L43.1-5.15ZM71.59 0.6Q67.89 0.6 65.07-0.98 62.24-2.55 60.67-5.3 59.09-8.05 59.09-11.5L59.09-11.5Q59.09-14.9 60.67-17.7 62.24-20.5 65.09-22.13 67.94-23.75 71.59-23.75L71.59-23.75Q75.09-23.75 77.94-22.18 80.8-20.6 82.44-17.82 84.09-15.05 84.09-11.5L84.09-11.5Q84.09-8.4 82.62-5.63 81.14-2.85 78.3-1.13 75.44 0.6 71.59 0.6L71.59 0.6ZM71.59-5.15Q74.55-5.15 76.37-6.88 78.19-8.6 78.19-11.35L78.19-11.35Q78.19-14.2 76.37-16.05 74.55-17.9 71.59-17.9L71.59-17.9Q68.84-17.9 67-16.07 65.14-14.25 65.14-11.5L65.14-11.5Q65.14-8.6 67-6.88 68.84-5.15 71.59-5.15L71.59-5.15ZM113.59-36L113.59-1.5Q113.59-1.25 113.97-1.1 114.34-0.95 114.69-0.95L114.69-0.95 114.69 0 107.54 0 107.54-1.75Q104.54 0.7 100.39 0.7L100.39 0.7Q96.69 0.7 93.79-0.8 90.89-2.3 89.24-5.05 87.59-7.8 87.59-11.4L87.59-11.4Q87.59-15.05 89.27-17.88 90.94-20.7 93.87-22.28 96.79-23.85 100.39-23.85L100.39-23.85Q104.54-23.85 107.54-21.5L107.54-21.5 107.54-36Q107.54-36.25 107.19-36.4 106.84-36.55 106.49-36.55L106.49-36.55 106.49-37.5 114.64-37.5 114.64-36.55Q114.29-36.55 113.94-36.4 113.59-36.25 113.59-36L113.59-36ZM100.69-4.65Q102.64-4.65 104.27-5.55 105.89-6.45 106.82-7.98 107.74-9.5 107.74-11.2L107.74-11.2Q107.74-14.25 105.77-16.23 103.79-18.2 100.69-18.2L100.69-18.2Q97.59-18.2 95.62-16.28 93.64-14.35 93.64-11.3L93.64-11.3Q93.64-8.25 95.67-6.45 97.69-4.65 100.69-4.65L100.69-4.65ZM124.54-27.2Q122.94-27.2 121.81-28.3 120.69-29.4 120.69-31.05L120.69-31.05Q120.69-32.6 121.81-33.73 122.94-34.85 124.54-34.85L124.54-34.85Q126.14-34.85 127.24-33.73 128.34-32.6 128.34-31.05L128.34-31.05Q128.34-29.4 127.24-28.3 126.14-27.2 124.54-27.2L124.54-27.2ZM121.29-21.5Q121.29-21.75 120.91-21.9 120.54-22.05 120.19-22.05L120.19-22.05 120.19-23 128.79-23 128.79-22.05Q128.44-22.05 128.06-21.9 127.69-21.75 127.69-21.5L127.69-21.5 127.69-1.5Q127.69-1.25 128.06-1.1 128.44-0.95 128.79-0.95L128.79-0.95 128.79 0 120.19 0 120.19-0.95Q120.54-0.95 120.91-1.1 121.29-1.25 121.29-1.5L121.29-1.5 121.29-21.5ZM145.74-24.05Q149.59-24.05 152.39-22.38 155.19-20.7 156.64-17.85 158.09-15 158.09-11.55L158.09-11.55Q158.09-10.5 157.94-9.45L157.94-9.45 139.64-9.45Q139.84-7.05 141.74-5.7 143.64-4.35 146.29-4.35L146.29-4.35Q148.09-4.35 149.31-4.85 150.54-5.35 151.49-6.35L151.49-6.35Q151.59-6.55 151.59-6.6L151.59-6.6Q151.59-6.8 151.44-7.03 151.29-7.25 151.14-7.35L151.14-7.35 151.74-8.1 157.29-3.75 156.74-3Q155.99-3.45 155.69-3.1L155.69-3.1Q152.19 1.1 146.29 1.1L146.29 1.1Q142.49 1.1 139.59-0.58 136.69-2.25 135.11-5.08 133.54-7.9 133.54-11.35L133.54-11.35Q133.54-15 135.09-17.9 136.64-20.8 139.41-22.43 142.19-24.05 145.74-24.05L145.74-24.05ZM139.69-14.1L152.09-14.1Q151.89-16.15 150.01-17.57 148.14-19 145.79-19L145.79-19Q143.44-19 141.74-17.57 140.04-16.15 139.69-14.1L139.69-14.1ZM188.09-7L189.04-7 189.04 1 188.09 1Q188.09 0.65 187.94 0.3 187.79-0.05 187.54-0.05L187.54-0.05 162.09-0.05 162.09-1Q162.44-1 162.81-1.15 163.19-1.3 163.19-1.55L163.19-1.55 163.19-36.05Q163.19-36.3 162.81-36.45 162.44-36.6 162.09-36.6L162.09-36.6 162.09-37.55 186.24-37.55Q186.49-37.55 186.64-37.9 186.79-38.25 186.79-38.6L186.79-38.6 187.74-38.6 187.74-30.6 186.79-30.6Q186.79-30.95 186.64-31.3 186.49-31.65 186.24-31.65L186.24-31.65 169.64-31.65 169.64-22.85 183.79-22.85Q184.04-22.85 184.19-23.2 184.34-23.55 184.34-23.9L184.34-23.9 185.29-23.9 185.29-15.9 184.34-15.9Q184.34-16.25 184.19-16.6 184.04-16.95 183.79-16.95L183.79-16.95 169.64-16.95 169.64-5.95 187.54-5.95Q187.79-5.95 187.94-6.3 188.09-6.65 188.09-7L188.09-7ZM219.38-23L219.38-22.05Q219.03-22.05 218.66-21.9 218.28-21.75 218.28-21.5L218.28-21.5 218.28-1.5Q218.28-1.25 218.66-1.1 219.03-0.95 219.38-0.95L219.38-0.95 219.38 0 211.98 0 211.98-2.75Q208.83 0.65 204.03 0.65L204.03 0.65Q200.38 0.65 197.61-0.83 194.83-2.3 193.31-5.05 191.78-7.8 191.78-11.45L191.78-11.45Q191.78-15 193.46-17.78 195.13-20.55 197.93-22.08 200.73-23.6 204.03-23.6L204.03-23.6Q208.83-23.6 211.98-19.9L211.98-19.9 211.98-23 219.38-23ZM204.78-4.65Q206.83-4.65 208.46-5.58 210.08-6.5 210.98-8.03 211.88-9.55 211.88-11.3L211.88-11.3Q211.88-14.3 209.91-16.25 207.93-18.2 204.78-18.2L204.78-18.2Q201.73-18.2 199.76-16.3 197.78-14.4 197.78-11.45L197.78-11.45Q197.78-8.35 199.81-6.5 201.83-4.65 204.78-4.65L204.78-4.65ZM236.43-24L237.38-24 237.38-16.4 236.43-16.4Q236.43-16.75 236.28-17.07 236.13-17.4 235.88-17.4L235.88-17.4 232.63-17.4 232.63-1.5Q232.63-1.25 232.98-1.1 233.33-0.95 233.68-0.95L233.68-0.95 233.68 0 225.53 0 225.53-0.95Q225.88-0.95 226.23-1.1 226.58-1.25 226.58-1.5L226.58-1.5 226.58-17.4 224.18-17.4Q223.93-17.4 223.78-17.07 223.63-16.75 223.63-16.4L223.63-16.4 222.68-16.4 222.68-24 223.63-24Q223.63-23.65 223.78-23.33 223.93-23 224.18-23L224.18-23 226.58-23 226.58-28.85Q226.58-29.1 226.23-29.25 225.88-29.4 225.53-29.4L225.53-29.4 225.53-30.35 233.68-30.35 233.68-29.4Q233.33-29.4 232.98-29.25 232.63-29.1 232.63-28.85L232.63-28.85 232.63-23 235.88-23Q236.13-23 236.28-23.33 236.43-23.65 236.43-24L236.43-24ZM250.38 0.75Q247.83 0.75 245.45-0.3 243.08-1.35 240.68-3.3L240.68-3.3Q240.58-3.4 240.43-3.4L240.43-3.4Q240.03-3.4 239.58-2.95L239.58-2.95 238.88-3.55 243.88-9.25 244.58-8.6Q244.38-8.35 244.25-8 244.13-7.65 244.33-7.45L244.33-7.45Q245.98-5.95 247.4-5.23 248.83-4.5 250.38-4.5L250.38-4.5Q254.23-4.5 254.23-7.05L254.23-7.05Q254.23-8.2 253.05-8.83 251.88-9.45 249.13-10.2L249.13-10.2Q245.58-11.15 243.98-12.68 242.38-14.2 242.38-16.85L242.38-16.85Q242.38-20 244.43-21.98 246.48-23.95 250.03-23.95L250.03-23.95Q251.83-23.95 253.28-23.4 254.73-22.85 256.78-21.45L256.78-21.45Q256.83-21.4 256.98-21.4L256.98-21.4Q257.23-21.4 257.48-21.55 257.73-21.7 257.83-21.85L257.83-21.85 258.58-21.2 254.08-16.1 253.38-16.7Q253.58-16.9 253.65-17.23 253.73-17.55 253.53-17.75L253.53-17.75Q252.63-18.45 251.8-18.8 250.98-19.15 249.98-19.15L249.98-19.15Q248.93-19.15 248.33-18.75 247.73-18.35 247.73-17.55L247.73-17.55Q247.73-16.9 248.08-16.5 248.43-16.1 249.35-15.7 250.28-15.3 252.18-14.7L252.18-14.7Q255.68-13.65 257.68-11.78 259.68-9.9 259.68-7.15L259.68-7.15Q259.68-3.1 257.13-1.18 254.58 0.75 250.38 0.75L250.38 0.75Z" fill="#ff4136" data-fill-palette-color="primary"></path></g></svg></g></svg></g><g transform="matrix(1,0,0,1,0,75.46284349511663)"><svg viewBox="0 0 232.209792 16.699679877080666" height="16.699679877080666" width="232.209792"><g transform="matrix(1,0,0,1,0,0)"><svg width="232.209792" viewBox="0.2 -38.6 702.8299999999999 50.55" height="16.699679877080666" data-palette-color="#ff4136"><path d="M22.4 0L9.5 0 9.5-2.15 14.6-3.2 13.9-2.3 13.9-13.6 14.35-11.95 3.8-32.4 4.75-31.65 0.2-32.5 0.2-34.65 13-34.9 13-32.75 7.65-31.75 8.05-32.55 16.7-15.05 15.85-15.05 24.6-32.4 24.95-31.65 19.6-32.5 19.6-34.65 31.9-34.9 31.9-32.75 27.35-31.75 28.25-32.5 17.65-11.95 18-13.6 18-2.3 17.3-3.2 22.4-2.15 22.4 0ZM46.75-26.85L46.75-26.85Q52.25-26.85 55.37-23.4 58.5-19.95 58.5-13.65L58.5-13.65Q58.5-9.4 56.97-6.23 55.45-3.05 52.65-1.3 49.85 0.45 45.9 0.45L45.9 0.45Q40.5 0.45 37.45-2.93 34.4-6.3 34.4-12.65L34.4-12.65Q34.4-17.05 35.87-20.23 37.35-23.4 40.12-25.13 42.9-26.85 46.75-26.85ZM46.55-23.9L46.55-23.9Q42.7-23.9 40.65-21 38.6-18.1 38.6-12.85L38.6-12.85Q38.6-7.7 40.55-5.1 42.5-2.5 46.15-2.5L46.15-2.5Q48.8-2.5 50.62-3.83 52.45-5.15 53.37-7.6 54.3-10.05 54.3-13.45L54.3-13.45Q54.3-18.55 52.27-21.23 50.25-23.9 46.55-23.9ZM73.15 0.45L73.15 0.45Q69.85 0.45 67.7-1.6 65.55-3.65 65.55-7.9L65.55-7.9 65.55-23.85 66.05-23.15 61.6-24.1 61.6-26.25 69.55-26.55 69.55-8.6Q69.55-5.6 70.95-4.15 72.35-2.7 74.7-2.7L74.7-2.7Q76.55-2.7 78.7-3.7 80.85-4.7 82.95-6.8L82.95-6.8 82.65-5.9 82.65-23.95 83.15-23.15 78.7-24.1 78.7-26.25 86.65-26.6 86.65-2.45 86.05-3.1 90.55-2.25 90.55-0.05 83.55 0.25 82.95-4.7 83.5-4.5Q81.05-1.95 78.32-0.75 75.6 0.45 73.15 0.45ZM106.44 0L93.69 0 93.69-2.15 98.09-3.1 97.59-2.35 97.59-23.9 98.14-23.15 93.69-24.1 93.69-26.25 100.69-26.6 101.24-21.7 100.69-21.9Q102.94-24.25 105.09-25.55 107.24-26.85 109.79-26.85L109.79-26.85Q111.39-26.85 113.14-26.35L113.14-26.35 112.84-19.05 110.34-19.05 109.74-24.3 110.19-23.4Q109.84-23.5 109.44-23.55 109.04-23.6 108.64-23.6L108.64-23.6Q106.64-23.6 104.77-22.4 102.89-21.2 101.19-19.3L101.19-19.3 101.59-20.5 101.59-2.35 100.99-3.1 106.44-2.15 106.44 0ZM142.89 0.4L142.89 0.4Q138.04 0.4 134.44-1.58 130.84-3.55 128.86-7.48 126.89-11.4 126.89-17.1L126.89-17.1Q126.89-22.9 128.89-26.98 130.89-31.05 134.61-33.2 138.34-35.35 143.44-35.35L143.44-35.35Q146.14-35.35 149.11-34.73 152.09-34.1 155.14-32.8L155.14-32.8 154.79-25 152.29-25 151.44-31.15 152.09-30.45Q149.99-31.2 147.74-31.65 145.49-32.1 143.49-32.1L143.49-32.1Q139.74-32.1 136.99-30.35 134.24-28.6 132.76-25.28 131.29-21.95 131.29-17.2L131.29-17.2Q131.29-10.3 134.49-6.58 137.69-2.85 143.39-2.85L143.39-2.85Q145.29-2.85 147.36-3.28 149.44-3.7 151.69-4.55L151.69-4.55 151.14-3.6 151.14-14.4 151.89-13.65 146.79-14.3 146.79-16.55 159.14-16.8 159.14-14.55 154.44-13.6 154.99-14.4 154.99-2.25Q151.74-0.9 148.69-0.25 145.64 0.4 142.89 0.4ZM175.49-26.85L175.49-26.85Q180.99-26.85 184.11-23.4 187.24-19.95 187.24-13.65L187.24-13.65Q187.24-9.4 185.71-6.23 184.19-3.05 181.39-1.3 178.59 0.45 174.64 0.45L174.64 0.45Q169.24 0.45 166.19-2.93 163.14-6.3 163.14-12.65L163.14-12.65Q163.14-17.05 164.61-20.23 166.09-23.4 168.86-25.13 171.64-26.85 175.49-26.85ZM175.29-23.9L175.29-23.9Q171.44-23.9 169.39-21 167.34-18.1 167.34-12.85L167.34-12.85Q167.34-7.7 169.29-5.1 171.24-2.5 174.89-2.5L174.89-2.5Q177.54-2.5 179.36-3.83 181.19-5.15 182.11-7.6 183.04-10.05 183.04-13.45L183.04-13.45Q183.04-18.55 181.01-21.23 178.99-23.9 175.29-23.9ZM193.83-16.25L208.13-16.25 208.13-13.1 193.83-13.1 193.83-16.25ZM234.08 0L220.03 0 220.03-2.15 225.83-3.2 225.03-2.1 225.03-32.6 225.93-31.85 216.28-31.85 217.28-32.7 216.28-26.35 213.78-26.35 213.78-34.9 240.33-34.9 240.33-26.35 237.83-26.35 236.83-32.6 237.83-31.85 228.18-31.85 229.08-32.6 229.08-2.1 228.33-3.2 234.08-2.15 234.08 0ZM256.38-26.85L256.38-26.85Q261.88-26.85 265-23.4 268.13-19.95 268.13-13.65L268.13-13.65Q268.13-9.4 266.6-6.23 265.08-3.05 262.28-1.3 259.48 0.45 255.53 0.45L255.53 0.45Q250.13 0.45 247.08-2.93 244.03-6.3 244.03-12.65L244.03-12.65Q244.03-17.05 245.5-20.23 246.98-23.4 249.75-25.13 252.53-26.85 256.38-26.85ZM256.18-23.9L256.18-23.9Q252.33-23.9 250.28-21 248.23-18.1 248.23-12.85L248.23-12.85Q248.23-7.7 250.18-5.1 252.13-2.5 255.78-2.5L255.78-2.5Q258.43-2.5 260.25-3.83 262.08-5.15 263-7.6 263.93-10.05 263.93-13.45L263.93-13.45Q263.93-18.55 261.9-21.23 259.88-23.9 256.18-23.9ZM296.67 0L282.87 0 282.87-2.15 287.72-3.15 287.17-2.45 287.17-32.5 287.87-31.6 282.87-32.5 282.87-34.65 291.22-34.9 307.07-34.9 307.12-26.95 304.62-26.95 303.72-32.4 304.57-31.85 290.52-31.85 291.27-32.6 291.27-18.25 290.52-18.95 303.37-18.95 303.37-15.9 290.52-15.9 291.27-16.6 291.27-2.45 290.67-3.15 296.67-2.15 296.67 0ZM323.32-26.85L323.32-26.85Q328.82-26.85 331.94-23.4 335.07-19.95 335.07-13.65L335.07-13.65Q335.07-9.4 333.55-6.23 332.02-3.05 329.22-1.3 326.42 0.45 322.47 0.45L322.47 0.45Q317.07 0.45 314.02-2.93 310.97-6.3 310.97-12.65L310.97-12.65Q310.97-17.05 312.44-20.23 313.92-23.4 316.69-25.13 319.47-26.85 323.32-26.85ZM323.12-23.9L323.12-23.9Q319.27-23.9 317.22-21 315.17-18.1 315.17-12.85L315.17-12.85Q315.17-7.7 317.12-5.1 319.07-2.5 322.72-2.5L322.72-2.5Q325.37-2.5 327.19-3.83 329.02-5.15 329.94-7.6 330.87-10.05 330.87-13.45L330.87-13.45Q330.87-18.55 328.85-21.23 326.82-23.9 323.12-23.9ZM352.07-26.85L352.07-26.85Q357.57-26.85 360.69-23.4 363.82-19.95 363.82-13.65L363.82-13.65Q363.82-9.4 362.29-6.23 360.77-3.05 357.97-1.3 355.17 0.45 351.22 0.45L351.22 0.45Q345.82 0.45 342.77-2.93 339.72-6.3 339.72-12.65L339.72-12.65Q339.72-17.05 341.19-20.23 342.67-23.4 345.44-25.13 348.22-26.85 352.07-26.85ZM351.87-23.9L351.87-23.9Q348.02-23.9 345.97-21 343.92-18.1 343.92-12.85L343.92-12.85Q343.92-7.7 345.87-5.1 347.82-2.5 351.47-2.5L351.47-2.5Q354.12-2.5 355.94-3.83 357.77-5.15 358.69-7.6 359.62-10.05 359.62-13.45L359.62-13.45Q359.62-18.55 357.59-21.23 355.57-23.9 351.87-23.9ZM378.37 0.45L378.37 0.45Q375.62 0.45 373.37-1.07 371.12-2.6 369.81-5.58 368.51-8.55 368.51-12.8L368.51-12.8Q368.51-19.75 372.06-23.3 375.62-26.85 381.81-26.85L381.81-26.85Q383.12-26.85 384.54-26.65 385.97-26.45 387.47-26.05L387.47-26.05 386.67-25.6 386.67-35.65 387.12-35.1 382.51-36.1 382.51-38.25 390.67-38.6 390.67-2.45 390.06-3.15 394.56-2.25 394.56-0.05 387.56 0.25 386.97-4.05 387.47-3.85Q385.22-1.7 382.94-0.63 380.67 0.45 378.37 0.45ZM379.76-2.6L379.76-2.6Q381.51-2.6 383.39-3.53 385.26-4.45 387.17-6.3L387.17-6.3 386.67-4.95 386.67-23.9 387.22-22.9Q384.17-23.9 381.67-23.9L381.67-23.9Q377.26-23.9 374.97-21.05 372.67-18.2 372.67-13.15L372.67-13.15Q372.67-9.85 373.59-7.48 374.51-5.1 376.14-3.85 377.76-2.6 379.76-2.6ZM417.61-34.9L423.11-34.9Q426.46-34.9 429.28-33.88 432.11-32.85 434.21-30.78 436.31-28.7 437.51-25.53 438.71-22.35 438.71-18L438.71-18Q438.71-12.1 436.58-8.1 434.46-4.1 430.76-2.05 427.06 0 422.31 0L422.31 0 408.21 0 408.21-2.15 413.21-3.2 412.51-2.3 412.51-32.5 413.21-31.55 408.21-32.5 408.21-34.65 417.61-34.9ZM415.86-3.05L422.46-3.05Q424.76-3.05 426.86-3.8 428.96-4.55 430.66-6.23 432.36-7.9 433.33-10.73 434.31-13.55 434.31-17.65L434.31-17.65Q434.31-21.7 433.36-24.43 432.41-27.15 430.81-28.78 429.21-30.4 427.21-31.13 425.21-31.85 423.01-31.85L423.01-31.85 415.86-31.85 416.61-32.6 416.61-2.3 415.86-3.05ZM455.46 0.45L455.46 0.45Q452.11 0.45 449.53-1.07 446.96-2.6 445.51-5.55 444.06-8.5 444.06-12.75L444.06-12.75Q444.06-17.1 445.56-20.25 447.06-23.4 449.81-25.13 452.56-26.85 456.26-26.85L456.26-26.85Q459.76-26.85 462.03-25.38 464.31-23.9 465.43-21.3 466.56-18.7 466.56-15.35L466.56-15.35Q466.56-14.8 466.51-14.25 466.46-13.7 466.36-12.9L466.36-12.9 447.11-12.9 447.11-15.75 462.86-15.75 462.41-15.45Q462.46-17.7 461.86-19.6 461.26-21.5 459.81-22.65 458.36-23.8 455.96-23.8L455.96-23.8Q453.41-23.8 451.66-22.45 449.91-21.1 449.06-18.75 448.21-16.4 448.21-13.3L448.21-13.3Q448.21-10 449.16-7.63 450.11-5.25 451.93-3.95 453.76-2.65 456.41-2.65L456.41-2.65Q458.26-2.65 460.46-3.38 462.66-4.1 465.01-5.6L465.01-5.6 466.46-3.35Q463.66-1.45 460.86-0.5 458.06 0.45 455.46 0.45ZM478.15-38.6L478.15-2.55 477.7-3.1 482.06-2.15 482.06 0 470.2 0 470.2-2.15 474.56-3.1 474.15-2.55 474.15-35.65 474.56-35.2 470.2-36.1 470.2-38.25 478.15-38.6ZM493.05-26.55L493.05-2.55 492.6-3.1 496.95-2.15 496.95 0 485.15 0 485.15-2.15 489.5-3.1 489.05-2.55 489.05-23.65 489.45-23.2 485.15-24.1 485.15-26.25 493.05-26.55ZM490.75-31.95L490.75-31.95Q489.6-31.95 488.85-32.7 488.1-33.45 488.1-34.75L488.1-34.75Q488.1-36.1 488.88-36.83 489.65-37.55 490.8-37.55L490.8-37.55Q492-37.55 492.75-36.85 493.5-36.15 493.5-34.75L493.5-34.75Q493.5-33.4 492.7-32.68 491.9-31.95 490.75-31.95ZM514.25-24.1L514.25-26.25 524.7-26.6 524.7-24.4 521.3-23.4 522-24.15 513.3 0.1 508.6 0.1 500.65-24.05 501.35-23.4 497.9-24.1 497.9-26.25 508.9-26.6 508.9-24.4 504.35-23.55 504.75-24.15 511.45-2.45 511.05-2.45 518.3-24 518.6-23.55 514.25-24.1ZM538.3 0.45L538.3 0.45Q534.95 0.45 532.37-1.07 529.8-2.6 528.35-5.55 526.9-8.5 526.9-12.75L526.9-12.75Q526.9-17.1 528.4-20.25 529.9-23.4 532.65-25.13 535.4-26.85 539.1-26.85L539.1-26.85Q542.6-26.85 544.87-25.38 547.15-23.9 548.27-21.3 549.4-18.7 549.4-15.35L549.4-15.35Q549.4-14.8 549.35-14.25 549.3-13.7 549.2-12.9L549.2-12.9 529.95-12.9 529.95-15.75 545.7-15.75 545.25-15.45Q545.3-17.7 544.7-19.6 544.1-21.5 542.65-22.65 541.2-23.8 538.8-23.8L538.8-23.8Q536.25-23.8 534.5-22.45 532.75-21.1 531.9-18.75 531.05-16.4 531.05-13.3L531.05-13.3Q531.05-10 532-7.63 532.95-5.25 534.77-3.95 536.6-2.65 539.25-2.65L539.25-2.65Q541.1-2.65 543.3-3.38 545.5-4.1 547.85-5.6L547.85-5.6 549.3-3.35Q546.5-1.45 543.7-0.5 540.9 0.45 538.3 0.45ZM566.49 0L553.74 0 553.74-2.15 558.14-3.1 557.64-2.35 557.64-23.9 558.19-23.15 553.74-24.1 553.74-26.25 560.74-26.6 561.29-21.7 560.74-21.9Q562.99-24.25 565.14-25.55 567.29-26.85 569.84-26.85L569.84-26.85Q571.44-26.85 573.19-26.35L573.19-26.35 572.89-19.05 570.39-19.05 569.79-24.3 570.24-23.4Q569.89-23.5 569.49-23.55 569.09-23.6 568.69-23.6L568.69-23.6Q566.69-23.6 564.82-22.4 562.94-21.2 561.24-19.3L561.24-19.3 561.64-20.5 561.64-2.35 561.04-3.1 566.49-2.15 566.49 0ZM574.69 11.7L574.69 11.7 575.04 8.75Q575.64 8.85 576.17 8.9 576.69 8.95 577.14 8.95L577.14 8.95Q579.59 8.95 581.12 7.83 582.64 6.7 583.69 4.45 584.74 2.2 585.84-1.15L585.84-1.15 585.69 0.35 576.34-24 576.89-23.55 573.64-24.1 573.64-26.25 584.59-26.6 584.59-24.4 580.09-23.65 580.39-24.1 587.84-2.85 586.94-3.05 594.09-24 594.39-23.55 589.99-24.1 589.99-26.25 600.59-26.6 600.59-24.4 597.09-23.6 597.79-24.05 588.99 0.1Q588.09 2.6 587.12 4.75 586.14 6.9 584.89 8.53 583.64 10.15 581.84 11.05 580.04 11.95 577.49 11.95L577.49 11.95Q576.34 11.95 574.69 11.7ZM630.49-35L642.04-2.2 640.89-3.2 645.59-2.15 645.59 0 632.59 0 632.59-2.15 637.79-3.15 637.39-2.45 634.74-10.45 635.49-9.85 620.19-9.85 620.89-10.45 618.04-2.55 617.79-3.1 622.89-2.15 622.89 0 610.59 0 610.59-2.15 615.19-3.2 614.14-2.3 626.34-34.85 630.49-35ZM628.64-32.45L621.44-12.2 621.04-12.85 634.69-12.85 634.24-12.15 627.69-32.5 628.64-32.45ZM659.68 11.5L647.18 11.5 647.18 9.35 651.73 8.3 651.08 9.05 651.08-23.8 651.68-23.15 647.18-24.1 647.18-26.25 654.18-26.6 654.68-22.25 654.23-22.55Q656.53-24.7 658.83-25.78 661.13-26.85 663.38-26.85L663.38-26.85Q666.18-26.85 668.41-25.3 670.63-23.75 671.93-20.83 673.23-17.9 673.23-13.65L673.23-13.65Q673.23-9.05 671.66-5.9 670.08-2.75 667.23-1.13 664.38 0.5 660.53 0.5L660.53 0.5Q659.13 0.5 657.63 0.25 656.13 0 654.48-0.4L654.48-0.4 655.08-0.95 655.08 9.05 654.53 8.35 659.68 9.35 659.68 11.5ZM660.08-2.5L660.08-2.5Q664.48-2.5 666.78-5.35 669.08-8.2 669.08-13.25L669.08-13.25Q669.08-16.55 668.16-18.9 667.23-21.25 665.63-22.53 664.03-23.8 661.98-23.8L661.98-23.8Q660.23-23.8 658.36-22.88 656.48-21.95 654.58-20.05L654.58-20.05 655.08-21.3 655.08-2.55 654.53-3.45Q657.58-2.5 660.08-2.5ZM689.48 11.5L676.98 11.5 676.98 9.35 681.53 8.3 680.88 9.05 680.88-23.8 681.48-23.15 676.98-24.1 676.98-26.25 683.98-26.6 684.48-22.25 684.03-22.55Q686.33-24.7 688.63-25.78 690.93-26.85 693.18-26.85L693.18-26.85Q695.98-26.85 698.21-25.3 700.43-23.75 701.73-20.83 703.03-17.9 703.03-13.65L703.03-13.65Q703.03-9.05 701.46-5.9 699.88-2.75 697.03-1.13 694.18 0.5 690.33 0.5L690.33 0.5Q688.93 0.5 687.43 0.25 685.93 0 684.28-0.4L684.28-0.4 684.88-0.95 684.88 9.05 684.33 8.35 689.48 9.35 689.48 11.5ZM689.88-2.5L689.88-2.5Q694.28-2.5 696.58-5.35 698.88-8.2 698.88-13.25L698.88-13.25Q698.88-16.55 697.96-18.9 697.03-21.25 695.43-22.53 693.83-23.8 691.78-23.8L691.78-23.8Q690.03-23.8 688.16-22.88 686.28-21.95 684.38-20.05L684.38-20.05 684.88-21.3 684.88-2.55 684.33-3.45Q687.38-2.5 689.88-2.5Z" opacity="1" transform="matrix(1,0,0,1,0,0)" fill="#ff4136" class="slogan-text-1" data-fill-palette-color="secondary" id="text-1"></path></svg></g></svg></g></svg></g></svg></g><g><svg viewBox="0 0 115.37894305125141 118.45280478935031" height="118.45280478935031" width="115.37894305125141"><g><svg xmlns="http://www.w3.org/2000/svg" xmlns:xlink="http://www.w3.org/1999/xlink" version="1.1" x="0" y="0" viewBox="0 -0.00000992712791445845 97.405 100.00000992712792" enable-background="new 0 0 97.404 100" xml:space="preserve" id="icon-0" width="115.37894305125141" height="118.45280478935031" class="icon-icon-0" data-fill-palette-color="accent"><path d="M83.45 91.914C83.45 92.571 82.409 94.292 81.124 94.292L11.359 93.103C10.075 93.103 9.033 92.571 9.033 91.914S10.074 90.725 11.359 90.725L81.124 89.536C82.409 89.535 83.45 91.257 83.45 91.914" fill="#ff4136" data-fill-palette-color="accent"></path><path d="M83.45 97.622C83.45 98.279 82.409 100 81.124 100L11.359 98.811C10.075 98.811 9.033 98.279 9.033 97.622S10.074 96.433 11.359 96.433L81.124 95.244C82.409 95.243 83.45 96.965 83.45 97.622" fill="#ff4136" data-fill-palette-color="accent"></path><path d="M51.34 28.356A0.7 0.7 0 0 0 51.288 28.099C52.129 27.855 52.682 27.462 52.682 27.015 52.682 26.274 51.18 25.673 49.328 25.673 49.088 25.673 48.854 25.684 48.628 25.703 48.484 22.674 47.358 20.306 45.973 20.306 45.83 20.306 45.692 20.352 45.555 20.401A4.7 4.7 0 0 0 43.133 18.007C43.225 17.884 43.289 17.757 43.289 17.623 43.289 16.882 41.787 16.281 39.935 16.281 38.434 16.281 37.178 16.678 36.75 17.222 35.922 16.634 34.949 16.281 33.897 16.281 31.809 16.281 30.019 17.636 29.132 19.595 28.153 19.255 27.018 19.037 25.797 18.981L25.799 18.954C25.816 18.955 25.83 18.964 25.847 18.964A1.342 1.342 0 0 0 25.847 16.28C25.737 16.28 25.639 16.318 25.536 16.343 25.006 14.726 23.847 13.597 22.493 13.597 21.645 13.597 20.879 14.052 20.289 14.779 19.602 14.05 18.744 13.597 17.797 13.597 16.309 13.597 15.024 14.686 14.328 16.287 12.896 16.317 11.703 16.884 11.273 17.664 8.912 17.876 7.064 19.567 7.064 21.647 7.064 22.134 7.18 22.595 7.365 23.027 7.265 23.013 7.167 22.989 7.064 22.989 5.582 22.989 4.381 24.491 4.381 26.343 4.381 26.585 4.404 26.821 4.443 27.048 3.631 27.134 3.04 27.385 3.04 27.684 3.04 28.04 3.875 28.329 4.928 28.351 4.947 28.382 4.968 28.411 4.988 28.441 3.866 28.682 3.041 29.448 3.041 30.367 3.041 31.478 4.242 32.379 5.724 32.379 6.171 32.379 6.586 32.289 6.957 32.144 8.381 33.09 10.898 33.72 13.774 33.72 15.91 33.72 17.847 33.371 19.288 32.805 22.067 33.377 25.488 33.72 29.203 33.72 35.872 33.72 41.614 32.627 44.317 31.049 44.773 31.868 45.344 32.378 45.974 32.378 46.431 32.378 46.854 32.098 47.23 31.645 48.214 32.089 49.68 32.378 51.34 32.378 54.304 32.378 56.707 31.477 56.707 30.366S54.304 28.356 51.34 28.356M38.231 18.773L38.226 18.777 38.222 18.771z" fill="#ff4136" data-fill-palette-color="accent"></path><path d="M86.853 75.584C86 72.324 78.039 69.769 68.334 69.769 61.153 69.769 54.933 71.17 51.832 73.218 49.391 72.519 46.224 72.094 42.753 72.094 40.675 72.094 38.711 72.249 36.939 72.521 41.739 73.256 45.078 74.869 45.078 76.745S41.738 80.234 36.939 80.969C38.711 81.24 40.675 81.396 42.753 81.396 46.882 81.396 50.581 80.795 53.136 79.844 56.504 81.484 62.049 82.558 68.334 82.558 77.296 82.558 84.775 80.379 86.54 77.479 85.143 76.849 83.284 76.34 81.124 76.009A38.6 38.6 0 0 1 86.853 75.584M75.892 74.419C74.929 74.419 74.148 73.898 74.148 73.256S74.929 72.093 75.892 72.093 77.636 72.614 77.636 73.256C77.636 73.899 76.855 74.419 75.892 74.419" fill="#ff4136" data-fill-palette-color="accent"></path><path d="M85.903 81.19C81.688 83.866 74.314 84.884 68.334 84.884 62.361 84.884 56.855 83.964 53.017 82.343 50.192 83.235 46.594 83.722 42.753 83.722 40.627 83.722 38.552 83.569 36.587 83.268L32.201 81.299C27.176 81.8 24.149 82.441 24.149 83.141 24.149 84.746 40.027 86.048 59.613 86.048S95.077 84.747 95.077 83.141C95.078 82.389 91.601 81.706 85.903 81.19" fill="#ff4136" data-fill-palette-color="accent"></path><path d="M51.34 34.707C50.028 34.707 48.775 34.552 47.685 34.262A3.55 3.55 0 0 1 45.974 34.707C45.429 34.707 44.575 34.573 43.71 33.905 40.281 35.247 34.969 36.049 29.204 36.049 25.729 36.049 22.38 35.761 19.468 35.214 17.817 35.755 15.826 36.049 13.775 36.049 11.019 36.049 8.489 35.541 6.636 34.634A6 6 0 0 1 5.725 34.708C3.85 34.708 2.265 33.849 1.405 32.561H0C0 48.862 13.215 62.077 29.516 62.077S59.032 48.862 59.032 32.561H58.172C56.961 33.908 54.538 34.707 51.34 34.707" fill="#ff4136" data-fill-palette-color="accent"></path><path d="M29.516 64.402C24.965 64.402 20.638 63.435 16.719 61.708A3.9 3.9 0 0 0 16.1 63.843C16.1 65.695 18.658 67.443 20.125 67.443H37.566C39.033 67.443 41.591 65.695 41.591 63.843 41.591 63.227 41.452 62.658 41.223 62.163A31.7 31.7 0 0 1 29.516 64.402" fill="#ff4136" data-fill-palette-color="accent"></path><path d="M95.613 16.523C94.846 14.837 92.857 12.86 87.939 9.349 84.253 6.71 81.893 5.035 79.939 4.338 80.02 4.129 80.067 3.896 80.067 3.652V1.825A1.82 1.82 0 0 0 78.253 0 1.82 1.82 0 0 0 76.427 1.825V3.651C76.427 3.837 76.474 4.011 76.532 4.186 74.428 4.802 72.079 6.697 68.056 10 67.579 10.384 67.137 10.767 66.719 11.128 66.673 11.07 66.614 11.012 66.556 10.954L54.929 1.651A0.88 0.88 0 0 0 53.696 1.779 0.883 0.883 0 0 0 53.836 3.012L65.394 12.268C63.708 13.768 62.534 14.942 61.662 15.814 59.406 18.058 59.092 21.209 59.092 27.686V30.232H61.359V32.558C61.359 36.151 60.754 39.604 59.65 42.825 61.022 48.336 65.417 48.348 78.254 48.348 95.405 48.348 97.23 48.348 97.405 34.348V27.685C97.404 21.941 96.718 18.965 95.613 16.523M90.462 16.732H65.917C65.987 15.418 67.684 14.011 71.01 11.29 77.893 5.651 77.893 5.651 85.126 10.825 89.335 13.837 91.079 15.093 90.462 16.732" fill="#ff4136" data-fill-palette-color="accent"></path></svg></g></svg></g></svg></g><defs></defs></svg><rect width="395.52" height="89.18604851023046" fill="none" stroke="none" visibility="hidden"></rect></g></svg></g></svg>